<mxfile host="app.diagrams.net" modified="2024-03-22T10:05:54.683Z" agent="Mozilla/5.0 (X11; Linux x86_64; rv:109.0) Gecko/20100101 Firefox/115.0" etag="BrpHunC0_E6ESnMLP2pG" version="24.0.7" type="device">
  <diagram name="PÃ¡gina-1" id="QNrzKvdkZUiNf-F4cxl6">
    <mxGraphModel dx="1194" dy="685" grid="1" gridSize="10" guides="1" tooltips="1" connect="1" arrows="1" fold="1" page="1" pageScale="1" pageWidth="1169" pageHeight="827" math="0" shadow="0">
      <root>
        <mxCell id="0" />
        <mxCell id="1" parent="0" />
        <mxCell id="IdGpFHFMFsSPEDV2ob-z-1" value="&lt;div style=&quot;color: #000000;background-color: #ffffff;font-family: &#39;Droid Sans Mono&#39;, &#39;monospace&#39;, monospace;font-weight: normal;font-size: 14px;line-height: 19px;white-space: pre;&quot;&gt;&lt;div&gt;&lt;span style=&quot;color: #a31515;&quot;&gt;quay.io/centos7/httpd-24-centos7:centos7&lt;/span&gt;&lt;/div&gt;&lt;/div&gt;" style="rounded=0;whiteSpace=wrap;html=1;fillColor=#fff2cc;strokeColor=#d6b656;verticalAlign=bottom;" parent="1" vertex="1">
          <mxGeometry x="240" y="30" width="350" height="560" as="geometry" />
        </mxCell>
        <mxCell id="IdGpFHFMFsSPEDV2ob-z-2" value="&lt;div style=&quot;font-size: 18px;&quot;&gt;Capa 1&lt;/div&gt;&lt;div style=&quot;font-size: 18px;&quot;&gt;hash: c61d16cfe03e&lt;/div&gt;&lt;div style=&quot;font-size: 18px;&quot;&gt;id: 53498d66ad83&lt;/div&gt;" style="rounded=0;whiteSpace=wrap;html=1;align=left;fontSize=18;" parent="1" vertex="1">
          <mxGeometry x="270" y="390" width="290" height="160" as="geometry" />
        </mxCell>
        <mxCell id="IdGpFHFMFsSPEDV2ob-z-3" value="&lt;div style=&quot;font-size: 18px;&quot;&gt;Capa 2&lt;br style=&quot;font-size: 18px;&quot;&gt;&lt;/div&gt;&lt;div style=&quot;font-size: 18px;&quot;&gt;hash: 06c7e4737942&lt;/div&gt;&lt;div style=&quot;font-size: 18px;&quot;&gt;id: 007d2037805f&lt;/div&gt;" style="rounded=0;whiteSpace=wrap;html=1;align=left;fontSize=18;" parent="1" vertex="1">
          <mxGeometry x="270" y="220" width="290" height="160" as="geometry" />
        </mxCell>
        <mxCell id="IdGpFHFMFsSPEDV2ob-z-7" value="&lt;div style=&quot;font-size: 18px;&quot;&gt;Capa 3&lt;br style=&quot;font-size: 18px;&quot;&gt;&lt;/div&gt;&lt;div style=&quot;font-size: 18px;&quot;&gt;hash: 8f001c8d7e00&lt;/div&gt;&lt;div style=&quot;font-size: 18px;&quot;&gt;id: 8853b21ed9ab&lt;/div&gt;" style="rounded=0;whiteSpace=wrap;html=1;align=left;fontSize=18;" parent="1" vertex="1">
          <mxGeometry x="270" y="50" width="290" height="160" as="geometry" />
        </mxCell>
        <mxCell id="uRWNt52VGV2MBrOmD8XL-1" value="diff" style="rounded=0;whiteSpace=wrap;html=1;fillColor=#ffe6cc;strokeColor=#d79b00;" vertex="1" parent="1">
          <mxGeometry x="480" y="405" width="60" height="26" as="geometry" />
        </mxCell>
        <mxCell id="uRWNt52VGV2MBrOmD8XL-2" value="empty" style="rounded=0;whiteSpace=wrap;html=1;fillColor=#ffe6cc;strokeColor=#d79b00;" vertex="1" parent="1">
          <mxGeometry x="480" y="440" width="60" height="26" as="geometry" />
        </mxCell>
        <mxCell id="uRWNt52VGV2MBrOmD8XL-3" value="merged" style="rounded=0;whiteSpace=wrap;html=1;fillColor=#ffe6cc;strokeColor=#d79b00;" vertex="1" parent="1">
          <mxGeometry x="480" y="475" width="60" height="26" as="geometry" />
        </mxCell>
        <mxCell id="uRWNt52VGV2MBrOmD8XL-4" value="&lt;div&gt;link&lt;/div&gt;&lt;div&gt;LCIWXBIPSMIGB2RTQV36QKTCRH&lt;/div&gt;" style="rounded=0;whiteSpace=wrap;html=1;fillColor=#ffe6cc;strokeColor=#d79b00;" vertex="1" parent="1">
          <mxGeometry x="320" y="510" width="220" height="26" as="geometry" />
        </mxCell>
        <mxCell id="uRWNt52VGV2MBrOmD8XL-5" value="diff" style="rounded=0;whiteSpace=wrap;html=1;fillColor=#ffe6cc;strokeColor=#d79b00;" vertex="1" parent="1">
          <mxGeometry x="480" y="234.5" width="60" height="26" as="geometry" />
        </mxCell>
        <mxCell id="uRWNt52VGV2MBrOmD8XL-10" value="" style="edgeStyle=orthogonalEdgeStyle;rounded=0;orthogonalLoop=1;jettySize=auto;html=1;entryX=1;entryY=0.456;entryDx=0;entryDy=0;entryPerimeter=0;strokeWidth=2;curved=1;" edge="1" parent="1" source="uRWNt52VGV2MBrOmD8XL-6" target="IdGpFHFMFsSPEDV2ob-z-2">
          <mxGeometry relative="1" as="geometry">
            <mxPoint x="600" y="282.5" as="targetPoint" />
            <Array as="points">
              <mxPoint x="660" y="283" />
              <mxPoint x="660" y="463" />
            </Array>
          </mxGeometry>
        </mxCell>
        <mxCell id="uRWNt52VGV2MBrOmD8XL-6" value="lower" style="rounded=0;whiteSpace=wrap;html=1;fillColor=#ffe6cc;strokeColor=#d79b00;" vertex="1" parent="1">
          <mxGeometry x="480" y="269.5" width="60" height="26" as="geometry" />
        </mxCell>
        <mxCell id="uRWNt52VGV2MBrOmD8XL-7" value="merged" style="rounded=0;whiteSpace=wrap;html=1;fillColor=#ffe6cc;strokeColor=#d79b00;" vertex="1" parent="1">
          <mxGeometry x="480" y="304.5" width="60" height="26" as="geometry" />
        </mxCell>
        <mxCell id="uRWNt52VGV2MBrOmD8XL-8" value="&lt;div&gt;link&lt;/div&gt;&lt;div&gt;IVBKXQVXCMS3S4MYZYTY4NQ3W5&lt;/div&gt;" style="rounded=0;whiteSpace=wrap;html=1;fillColor=#ffe6cc;strokeColor=#d79b00;" vertex="1" parent="1">
          <mxGeometry x="320" y="339.5" width="220" height="26" as="geometry" />
        </mxCell>
        <mxCell id="uRWNt52VGV2MBrOmD8XL-11" value="diff" style="rounded=0;whiteSpace=wrap;html=1;fillColor=#ffe6cc;strokeColor=#d79b00;" vertex="1" parent="1">
          <mxGeometry x="480" y="70" width="60" height="26" as="geometry" />
        </mxCell>
        <mxCell id="uRWNt52VGV2MBrOmD8XL-16" value="" style="edgeStyle=orthogonalEdgeStyle;rounded=0;orthogonalLoop=1;jettySize=auto;html=1;entryX=0.997;entryY=0.388;entryDx=0;entryDy=0;entryPerimeter=0;strokeWidth=2;exitX=1;exitY=0.5;exitDx=0;exitDy=0;curved=1;endSize=6;" edge="1" parent="1" source="uRWNt52VGV2MBrOmD8XL-12">
          <mxGeometry relative="1" as="geometry">
            <mxPoint x="540" y="98" as="sourcePoint" />
            <mxPoint x="559.1300000000001" y="262.08000000000004" as="targetPoint" />
            <Array as="points">
              <mxPoint x="640" y="118" />
              <mxPoint x="640" y="262" />
            </Array>
          </mxGeometry>
        </mxCell>
        <mxCell id="uRWNt52VGV2MBrOmD8XL-12" value="lower" style="rounded=0;whiteSpace=wrap;html=1;fillColor=#ffe6cc;strokeColor=#d79b00;" vertex="1" parent="1">
          <mxGeometry x="480" y="105" width="60" height="26" as="geometry" />
        </mxCell>
        <mxCell id="uRWNt52VGV2MBrOmD8XL-13" value="merged" style="rounded=0;whiteSpace=wrap;html=1;fillColor=#ffe6cc;strokeColor=#d79b00;" vertex="1" parent="1">
          <mxGeometry x="480" y="140" width="60" height="26" as="geometry" />
        </mxCell>
        <mxCell id="uRWNt52VGV2MBrOmD8XL-14" value="&lt;div&gt;link&lt;/div&gt;&lt;div&gt;ZXSJGMR5T7VDVVGRWHG3E2I6DZ&lt;/div&gt;" style="rounded=0;whiteSpace=wrap;html=1;fillColor=#ffe6cc;strokeColor=#d79b00;" vertex="1" parent="1">
          <mxGeometry x="320" y="175" width="220" height="26" as="geometry" />
        </mxCell>
        <mxCell id="uRWNt52VGV2MBrOmD8XL-17" value="&lt;div&gt;&lt;b&gt;&lt;font style=&quot;font-size: 19px;&quot;&gt;l&lt;/font&gt;&lt;/b&gt;&lt;/div&gt;&lt;div&gt;&lt;b&gt;&lt;font style=&quot;font-size: 19px;&quot;&gt;&lt;br&gt;&lt;/font&gt;&lt;/b&gt;&lt;/div&gt;&lt;div&gt;ZXSJGMR5T7VDVVGRWHG3E2I6DZ&lt;/div&gt;&lt;div&gt;&lt;br&gt;&lt;/div&gt;&lt;div&gt;IVBKXQVXCMS3S4MYZYTY4NQ3W5&lt;/div&gt;&lt;div&gt;&lt;br&gt;&lt;/div&gt;&lt;div&gt;LCIWXBIPSMIGB2RTQV36QKTCRH&lt;/div&gt;" style="rounded=0;whiteSpace=wrap;html=1;fillColor=#ffe6cc;strokeColor=#d79b00;" vertex="1" parent="1">
          <mxGeometry x="680" y="30" width="220" height="130" as="geometry" />
        </mxCell>
        <mxCell id="uRWNt52VGV2MBrOmD8XL-18" value="" style="edgeStyle=none;orthogonalLoop=1;jettySize=auto;html=1;rounded=0;entryX=1;entryY=0.5;entryDx=0;entryDy=0;exitX=0.009;exitY=0.454;exitDx=0;exitDy=0;exitPerimeter=0;strokeWidth=2;strokeColor=#FF0000;dashed=1;" edge="1" parent="1" source="uRWNt52VGV2MBrOmD8XL-17" target="uRWNt52VGV2MBrOmD8XL-11">
          <mxGeometry width="80" relative="1" as="geometry">
            <mxPoint x="630" y="30" as="sourcePoint" />
            <mxPoint x="710" y="30" as="targetPoint" />
            <Array as="points" />
          </mxGeometry>
        </mxCell>
        <mxCell id="uRWNt52VGV2MBrOmD8XL-20" value="" style="edgeStyle=none;orthogonalLoop=1;jettySize=auto;html=1;rounded=0;entryX=1;entryY=0.75;entryDx=0;entryDy=0;exitX=0.009;exitY=0.454;exitDx=0;exitDy=0;exitPerimeter=0;strokeWidth=2;strokeColor=#FF0000;dashed=1;" edge="1" parent="1" target="uRWNt52VGV2MBrOmD8XL-5">
          <mxGeometry width="80" relative="1" as="geometry">
            <mxPoint x="682" y="121" as="sourcePoint" />
            <mxPoint x="540" y="115" as="targetPoint" />
            <Array as="points" />
          </mxGeometry>
        </mxCell>
        <mxCell id="uRWNt52VGV2MBrOmD8XL-21" value="" style="edgeStyle=none;orthogonalLoop=1;jettySize=auto;html=1;rounded=0;entryX=1;entryY=0.5;entryDx=0;entryDy=0;exitX=0.009;exitY=0.454;exitDx=0;exitDy=0;exitPerimeter=0;strokeWidth=2;strokeColor=#FF0000;dashed=1;" edge="1" parent="1" target="uRWNt52VGV2MBrOmD8XL-1">
          <mxGeometry width="80" relative="1" as="geometry">
            <mxPoint x="692" y="150" as="sourcePoint" />
            <mxPoint x="550" y="283" as="targetPoint" />
            <Array as="points" />
          </mxGeometry>
        </mxCell>
        <mxCell id="uRWNt52VGV2MBrOmD8XL-22" value="" style="edgeStyle=orthogonalEdgeStyle;rounded=0;orthogonalLoop=1;jettySize=auto;html=1;entryX=1.003;entryY=0.463;entryDx=0;entryDy=0;entryPerimeter=0;strokeWidth=2;exitX=1;exitY=0.5;exitDx=0;exitDy=0;curved=1;endSize=6;" edge="1" parent="1" target="IdGpFHFMFsSPEDV2ob-z-2">
          <mxGeometry relative="1" as="geometry">
            <mxPoint x="540" y="116.4" as="sourcePoint" />
            <mxPoint x="559.1300000000001" y="260.48" as="targetPoint" />
            <Array as="points">
              <mxPoint x="700" y="116" />
              <mxPoint x="700" y="464" />
            </Array>
          </mxGeometry>
        </mxCell>
      </root>
    </mxGraphModel>
  </diagram>
</mxfile>
